<svg width="400" height="400" viewBox="0 0 400 400" fill="none" xmlns="http://www.w3.org/2000/svg">
<rect width="400" height="400" fill="white"/>
<rect width="400" height="400" fill="black"/>
<path d="M49 263L57 249.144H73L81 263L73 276.856H57L49 263Z" fill="#086788"/>
<path d="M76 279L84 265.144H100L108 279L100 292.856H84L76 279Z" fill="#F0C808"/>
<path d="M49 231L57 217.144H73L81 231L73 244.856H57L49 231Z" fill="#EF476F"/>
<path d="M76 247L84 233.144H100L108 247L100 260.856H84L76 247Z" fill="#DD1C1A"/>
<path d="M103 263L111 249.144H127L135 263L127 276.856H111L103 263Z" fill="#EF476F"/>
<path d="M130 279L138 265.144H154L162 279L154 292.856H138L130 279Z" fill="#086788"/>
<path d="M130 279L138 265.144H154L162 279L154 292.856H138L130 279Z" fill="#F0C808"/>
<path d="M130 248L138 234.144H154L162 248L154 261.856H138L130 248Z" fill="#DD1C1A"/>
<path d="M103 295L111 281.144H127L135 295L127 308.856H111L103 295Z" fill="#EF476F"/>
<path d="M130 311L138 297.144H154L162 311L154 324.856H138L130 311Z" fill="#086788"/>
<path d="M265 263L273 249.144H289L297 263L289 276.856H273L265 263Z" fill="#086788"/>
<path d="M319 231L327 217.144H343L351 231L343 244.856H327L319 231Z" fill="#086788"/>
<path d="M319 231L327 217.144H343L351 231L343 244.856H327L319 231Z" fill="#F0C808"/>
<path d="M292 247L300 233.144H316L324 247L316 260.856H300L292 247Z" fill="#DD1C1A"/>
<path d="M319 199L327 185.144H343L351 199L343 212.856H327L319 199Z" fill="#086788"/>
<path d="M319 199L327 185.144H343L351 199L343 212.856H327L319 199Z" fill="#086788"/>
<path d="M292 215L300 201.144H316L324 215L316 228.856H300L292 215Z" fill="#EF476F"/>
<path d="M265 231L273 217.144H289L297 231L289 244.856H273L265 231Z" fill="#086788"/>
<path d="M319 263L327 249.144H343L351 263L343 276.856H327L319 263Z" fill="#EF476F"/>
<path d="M292 279L300 265.144H316L324 279L316 292.856H300L292 279Z" fill="#DD1C1A"/>
<path d="M157 327L165 313.144H181L189 327L181 340.856H165L157 327Z" fill="#F0C808"/>
<path d="M157 263L165 249.144H181L189 263L181 276.856H165L157 263Z" fill="#086788"/>
<path d="M184 279L192 265.144H208L216 279L208 292.856H192L184 279Z" fill="#DD1C1A"/>
<path d="M157 295L165 281.144H181L189 295L181 308.856H165L157 295Z" fill="#EF476F"/>
<path d="M184 311L192 297.144H208L216 311L208 324.856H192L184 311Z" fill="#086788"/>
<path d="M49 167L57 153.144H73L81 167L73 180.856H57L49 167Z" fill="#DD1C1A"/>
<path d="M76 120L84 106.144H100L108 120L100 133.856H84L76 120Z" fill="#DD1C1A"/>
<path d="M49 199L57 185.144H73L81 199L73 212.856H57L49 199Z" fill="#F0C808"/>
<path d="M76 215L84 201.144H100L108 215L100 228.856H84L76 215Z" fill="#086788"/>
<path d="M76 215L84 201.144H100L108 215L100 228.856H84L76 215Z" fill="#086788"/>
<path d="M76 183L84 169.144H100L108 183L100 196.856H84L76 183Z" fill="#EF476F"/>
<path d="M49 135L57 121.144H73L81 135L73 148.856H57L49 135Z" fill="#F0C808"/>
<path d="M76 151L84 137.144H100L108 151L100 164.856H84L76 151Z" fill="#086788"/>
<path d="M103 231L111 217.144H127L135 231L127 244.856H111L103 231Z" fill="#F0C808"/>
<path d="M211 295L219 281.144H235L243 295L235 308.856H219L211 295Z" fill="#F0C808"/>
<path d="M238 311L246 297.144H262L270 311L262 324.856H246L238 311Z" fill="#086788"/>
<path d="M238 311L246 297.144H262L270 311L262 324.856H246L238 311Z" fill="#086788"/>
<path d="M238 279L246 265.144H262L270 279L262 292.856H246L238 279Z" fill="#EF476F"/>
<path d="M211 327L219 313.144H235L243 327L235 340.856H219L211 327Z" fill="#EF476F"/>
<path d="M184 343L192 329.144H208L216 343L208 356.856H192L184 343Z" fill="#DD1C1A"/>
<path d="M292 183L300 169.144H316L324 183L316 196.856H300L292 183Z" fill="#F0C808"/>
<path d="M319 167L327 153.144H343L351 167L343 180.856H327L319 167Z" fill="#EF476F"/>
<path d="M292 119L300 105.144H316L324 119L316 132.856H300L292 119Z" fill="#EF476F"/>
<path d="M292 151L300 137.144H316L324 151L316 164.856H300L292 151Z" fill="#DD1C1A"/>
<path d="M319 135L327 121.144H343L351 135L343 148.856H327L319 135Z" fill="#F0C808"/>
<path d="M265 295L273 281.144H289L297 295L289 308.856H273L265 295Z" fill="#F0C808"/>
<path d="M238 247L246 233.144H262L270 247L262 260.856H246L238 247Z" fill="#F0C808"/>
<path d="M211 263L219 249.144H235L243 263L235 276.856H219L211 263Z" fill="#086788"/>
<path d="M103 167L111 153.144H127L135 167L127 180.856H111L103 167Z" fill="#19BC9B"/>
<path d="M130 183L138 169.144H154L162 183L154 196.856H138L130 183Z" fill="#19BC9B"/>
<path d="M130 183L138 169.144H154L162 183L154 196.856H138L130 183Z" fill="#19BC9B"/>
<path d="M130 152L138 138.144H154L162 152L154 165.856H138L130 152Z" fill="#19BC9B"/>
<path d="M103 199L111 185.144H127L135 199L127 212.856H111L103 199Z" fill="#19BC9B"/>
<path d="M130 215L138 201.144H154L162 215L154 228.856H138L130 215Z" fill="#19BC9B"/>
<path d="M265 167L273 153.144H289L297 167L289 180.856H273L265 167Z" fill="#19BC9B"/>
<path d="M265 135L273 121.144H289L297 135L289 148.856H273L265 135Z" fill="#19BC9B"/>
<path d="M157 231L165 217.144H181L189 231L181 244.856H165L157 231Z" fill="#19BC9B"/>
<path d="M157 167L165 153.144H181L189 167L181 180.856H165L157 167Z" fill="#19BC9B"/>
<path d="M184 183L192 169.144H208L216 183L208 196.856H192L184 183Z" fill="#19BC9B"/>
<path d="M157 199L165 185.144H181L189 199L181 212.856H165L157 199Z" fill="#19BC9B"/>
<path d="M184 215L192 201.144H208L216 215L208 228.856H192L184 215Z" fill="#19BC9B"/>
<path d="M103 135L111 121.144H127L135 135L127 148.856H111L103 135Z" fill="#19BC9B"/>
<path d="M211 199L219 185.144H235L243 199L235 212.856H219L211 199Z" fill="#19BC9B"/>
<path d="M238 215L246 201.144H262L270 215L262 228.856H246L238 215Z" fill="#19BC9B"/>
<path d="M238 215L246 201.144H262L270 215L262 228.856H246L238 215Z" fill="#19BC9B"/>
<path d="M238 183L246 169.144H262L270 183L262 196.856H246L238 183Z" fill="#19BC9B"/>
<path d="M211 231L219 217.144H235L243 231L235 244.856H219L211 231Z" fill="#19BC9B"/>
<path d="M184 247L192 233.144H208L216 247L208 260.856H192L184 247Z" fill="#19BC9B"/>
<path d="M265 199L273 185.144H289L297 199L289 212.856H273L265 199Z" fill="#19BC9B"/>
<path d="M238 151L246 137.144H262L270 151L262 164.856H246L238 151Z" fill="#19BC9B"/>
<path d="M211 167L219 153.144H235L243 167L235 180.856H219L211 167Z" fill="#19BC9B"/>
<path d="M297 136L289 149.856H273L265 136L273 122.144H289L297 136Z" fill="#19BC9B"/>
<path d="M270 120L262 133.856H246L238 120L246 106.144H262L270 120Z" fill="#19BC9B"/>
<path d="M270 120L262 133.856H246L238 120L246 106.144H262L270 120Z" fill="#19BC9B"/>
<path d="M270 151L262 164.856H246L238 151L246 137.144H262L270 151Z" fill="#19BC9B"/>
<path d="M297 104L289 117.856H273L265 104L273 90.1436H289L297 104Z" fill="#19BC9B"/>
<path d="M270 88L262 101.856H246L238 88L246 74.1436H262L270 88Z" fill="#19BC9B"/>
<path d="M135 136L127 149.856H111L103 136L111 122.144H127L135 136Z" fill="#19BC9B"/>
<path d="M135 168L127 181.856H111L103 168L111 154.144H127L135 168Z" fill="#19BC9B"/>
<path d="M243 72L235 85.8564H219L211 72L219 58.1436L235 58.1436L243 72Z" fill="#19BC9B"/>
<path d="M243 136L235 149.856H219L211 136L219 122.144H235L243 136Z" fill="#19BC9B"/>
<path d="M216 120L208 133.856H192L184 120L192 106.144H208L216 120Z" fill="#19BC9B"/>
<path d="M216 152L208 165.856H192L184 152L192 138.144H208L216 152Z" fill="#19BC9B"/>
<path d="M243 104L235 117.856H219L211 104L219 90.1436H235L243 104Z" fill="#19BC9B"/>
<path d="M216 88L208 101.856H192L184 88L192 74.1436H208L216 88Z" fill="#19BC9B"/>
<path d="M297 168L289 181.856H273L265 168L273 154.144H289L297 168Z" fill="#19BC9B"/>
<path d="M189 104L181 117.856H165L157 104L165 90.1436H181L189 104Z" fill="#19BC9B"/>
<path d="M162 88L154 101.856H138L130 88L138 74.1436H154L162 88Z" fill="#19BC9B"/>
<path d="M162 88L154 101.856H138L130 88L138 74.1436H154L162 88Z" fill="#19BC9B"/>
<path d="M162 120L154 133.856H138L130 120L138 106.144H154L162 120Z" fill="#19BC9B"/>
<path d="M189 72L181 85.8564H165L157 72L165 58.1436L181 58.1436L189 72Z" fill="#19BC9B"/>
<path d="M216 56L208 69.8564H192L184 56L192 42.1436L208 42.1436L216 56Z" fill="#19BC9B"/>
<path d="M135 104L127 117.856H111L103 104L111 90.1436H127L135 104Z" fill="#19BC9B"/>
<path d="M162 152L154 165.856H138L130 152L138 138.144H154L162 152Z" fill="#19BC9B"/>
<path d="M189 136L181 149.856H165L157 136L165 122.144H181L189 136Z" fill="#19BC9B"/>
</svg>
