<svg width="1200" height="400" viewBox="0 0 1200 400" fill="none" xmlns="http://www.w3.org/2000/svg">
<rect width="1200" height="400" fill="white"/>
<rect width="1200" height="400" fill="black"/>
<path d="M436.6 158C436.227 158 436.04 157.767 436.04 157.3V77.5H417.84C417.373 77.5 417.14 77.2667 417.14 76.8L417.28 61.12C417.28 60.7467 417.467 60.56 417.84 60.56H471.04C471.507 60.56 471.74 60.7467 471.74 61.12V76.8C471.74 77.2667 471.553 77.5 471.18 77.5H452.84L452.98 157.3C452.98 157.767 452.793 158 452.42 158H436.6ZM479.215 158C478.841 158 478.655 157.767 478.655 157.3L478.795 61.12C478.795 60.7467 479.028 60.56 479.495 60.56H495.035C495.501 60.56 495.735 60.7467 495.735 61.12L495.595 99.2H516.595V61.12C516.595 60.7467 516.781 60.56 517.155 60.56H532.695C533.161 60.56 533.395 60.7467 533.395 61.12L533.675 157.3C533.675 157.767 533.441 158 532.975 158H517.295C516.828 158 516.595 157.767 516.595 157.3V116.14H495.595V157.3C495.595 157.767 495.408 158 495.035 158H479.215ZM545.66 158C545.287 158 545.1 157.767 545.1 157.3L545.24 61.12C545.24 60.7467 545.427 60.56 545.8 60.56H590.74C591.113 60.56 591.3 60.7933 591.3 61.26V76.94C591.3 77.3133 591.113 77.5 590.74 77.5H562.04V99.34H590.74C591.113 99.34 591.3 99.5267 591.3 99.9L591.44 115.72C591.44 116.093 591.253 116.28 590.88 116.28H562.04V140.78H590.88C591.253 140.78 591.44 141.013 591.44 141.48V157.44C591.44 157.813 591.253 158 590.88 158H545.66ZM625.23 158C624.857 158 624.67 157.767 624.67 157.3L624.95 61.12C624.95 60.7467 625.137 60.56 625.51 60.56H642.59C642.964 60.56 643.29 60.7467 643.57 61.12L656.31 79.6L669.05 61.12C669.33 60.7467 669.657 60.56 670.03 60.56H687.25C687.624 60.56 687.81 60.7467 687.81 61.12L688.09 157.3C688.09 157.767 687.904 158 687.53 158H671.71C671.337 158 671.15 157.767 671.15 157.3L671.01 85.9L656.31 107.18L641.75 85.9L641.61 157.3C641.61 157.767 641.424 158 641.05 158H625.23ZM695.106 157.3L712.466 61.12C712.559 60.7467 712.792 60.56 713.166 60.56H733.466C733.839 60.56 734.072 60.7467 734.166 61.12L750.826 157.3C750.919 157.767 750.732 158 750.266 158H734.726C734.352 158 734.119 157.767 734.026 157.3L732.486 147.08H713.446L711.906 157.3C711.812 157.767 711.579 158 711.206 158H695.666C695.292 158 695.106 157.767 695.106 157.3ZM716.246 132.1H729.686L723.946 92.76L723.106 87.58L722.546 92.76L716.246 132.1ZM760.172 158C759.798 158 759.612 157.767 759.612 157.3L759.892 61.26C759.892 60.7933 760.078 60.56 760.452 60.56H776.132C776.505 60.56 776.692 60.7933 776.692 61.26V94.44L798.672 61.12C798.952 60.7467 799.278 60.56 799.652 60.56H815.752C816.125 60.56 816.218 60.7467 816.032 61.12L791.812 99.76L818.972 157.44C819.158 157.813 818.925 158 818.272 158H801.192C800.725 158 800.445 157.813 800.352 157.44L781.452 116.28L776.552 123.98V157.3C776.552 157.767 776.365 158 775.992 158H760.172ZM825.797 158C825.423 158 825.237 157.767 825.237 157.3L825.377 61.12C825.377 60.7467 825.563 60.56 825.937 60.56H870.877C871.25 60.56 871.437 60.7933 871.437 61.26V76.94C871.437 77.3133 871.25 77.5 870.877 77.5H842.177V99.34H870.877C871.25 99.34 871.437 99.5267 871.437 99.9L871.577 115.72C871.577 116.093 871.39 116.28 871.017 116.28H842.177V140.78H871.017C871.39 140.78 871.577 141.013 871.577 141.48V157.44C871.577 157.813 871.39 158 871.017 158H825.797ZM884.586 158C884.212 158 884.026 157.767 884.026 157.3L884.306 61.12C884.306 60.7467 884.492 60.56 884.866 60.56H913.146C918.186 60.56 922.806 61.82 927.006 64.34C931.299 66.7667 934.706 70.08 937.226 74.28C939.746 78.3867 941.006 83.0533 941.006 88.28C941.006 91.7333 940.492 94.86 939.466 97.66C938.439 100.367 937.226 102.7 935.826 104.66C934.426 106.527 933.166 107.927 932.046 108.86C937.086 114.46 939.606 121.04 939.606 128.6L939.746 157.3C939.746 157.767 939.512 158 939.046 158H923.226C922.852 158 922.666 157.86 922.666 157.58V128.6C922.666 125.24 921.452 122.347 919.026 119.92C916.692 117.4 913.799 116.14 910.346 116.14H901.106L900.966 157.3C900.966 157.767 900.779 158 900.406 158H884.586ZM901.106 99.34H913.146C916.039 99.34 918.606 98.2667 920.846 96.12C923.086 93.9733 924.206 91.36 924.206 88.28C924.206 85.2933 923.086 82.7267 920.846 80.58C918.699 78.4333 916.132 77.36 913.146 77.36H901.106V99.34ZM952.265 158C951.798 158 951.565 157.767 951.565 157.3L951.845 61.12C951.845 60.7467 952.032 60.56 952.405 60.56L978.585 60.42C983.718 60.3267 988.385 61.54 992.585 64.06C996.878 66.58 1000.28 69.9867 1002.8 74.28C1005.32 78.48 1006.58 83.1467 1006.58 88.28V128.46C1006.58 133.873 1005.28 138.82 1002.66 143.3C1000.05 147.687 996.552 151.187 992.165 153.8C987.778 156.413 982.832 157.767 977.325 157.86L952.265 158ZM968.645 140.78H977.325C980.778 140.78 983.672 139.567 986.005 137.14C988.432 134.713 989.645 131.82 989.645 128.46V88.14C989.645 85.1533 988.525 82.5867 986.285 80.44C984.138 78.2 981.572 77.1267 978.585 77.22L968.785 77.36L968.645 140.78ZM1010.11 157.3L1027.47 61.12C1027.56 60.7467 1027.79 60.56 1028.17 60.56H1048.47C1048.84 60.56 1049.07 60.7467 1049.17 61.12L1065.83 157.3C1065.92 157.767 1065.73 158 1065.27 158H1049.73C1049.35 158 1049.12 157.767 1049.03 157.3L1047.49 147.08H1028.45L1026.91 157.3C1026.81 157.767 1026.58 158 1026.21 158H1010.67C1010.29 158 1010.11 157.767 1010.11 157.3ZM1031.25 132.1H1044.69L1038.95 92.76L1038.11 87.58L1037.55 92.76L1031.25 132.1ZM1097.5 159.4C1092.46 159.4 1087.84 158.14 1083.64 155.62C1079.54 153.007 1076.22 149.6 1073.7 145.4C1071.18 141.107 1069.92 136.393 1069.92 131.26L1070.06 86.88C1070.06 81.7467 1071.28 77.08 1073.7 72.88C1076.22 68.68 1079.58 65.32 1083.78 62.8C1087.98 60.28 1092.56 59.02 1097.5 59.02C1102.54 59.02 1107.12 60.28 1111.22 62.8C1115.33 65.32 1118.6 68.68 1121.02 72.88C1123.54 77.08 1124.8 81.7467 1124.8 86.88L1124.94 131.26C1124.94 136.393 1123.68 141.107 1121.16 145.4C1118.74 149.6 1115.42 153.007 1111.22 155.62C1107.12 158.14 1102.54 159.4 1097.5 159.4ZM1097.5 142.46C1100.3 142.46 1102.73 141.34 1104.78 139.1C1106.93 136.767 1108 134.153 1108 131.26L1107.86 86.88C1107.86 83.8 1106.88 81.1867 1104.92 79.04C1102.96 76.8933 1100.49 75.82 1097.5 75.82C1094.61 75.82 1092.14 76.8933 1090.08 79.04C1088.03 81.0933 1087 83.7067 1087 86.88V131.26C1087 134.34 1088.03 137 1090.08 139.24C1092.14 141.387 1094.61 142.46 1097.5 142.46ZM423.16 333C422.787 333 422.6 332.767 422.6 332.3L422.88 236.12C422.88 235.747 423.067 235.56 423.44 235.56H450.32C455.64 235.56 460.4 236.867 464.6 239.48C468.8 242 472.113 245.36 474.54 249.56C476.967 253.76 478.18 258.333 478.18 263.28C478.18 267.293 477.247 271.027 475.38 274.48C473.607 277.933 471.46 280.733 468.94 282.88C471.647 285.587 473.747 288.713 475.24 292.26C476.733 295.807 477.48 299.54 477.48 303.46C477.48 308.873 476.173 313.82 473.56 318.3C470.947 322.78 467.4 326.373 462.92 329.08C458.533 331.693 453.633 333 448.22 333H423.16ZM439.68 274.2H450.32C453.587 274.2 456.2 273.08 458.16 270.84C460.213 268.507 461.24 265.987 461.24 263.28C461.24 260.293 460.167 257.727 458.02 255.58C455.873 253.34 453.307 252.22 450.32 252.22H439.68V274.2ZM439.54 315.92H448.22C451.58 315.92 454.473 314.707 456.9 312.28C459.327 309.76 460.54 306.82 460.54 303.46C460.54 300.1 459.327 297.207 456.9 294.78C454.473 292.353 451.58 291.14 448.22 291.14H439.68L439.54 315.92ZM480.047 332.3L497.407 236.12C497.5 235.747 497.734 235.56 498.107 235.56H518.407C518.78 235.56 519.014 235.747 519.107 236.12L535.767 332.3C535.86 332.767 535.674 333 535.207 333H519.667C519.294 333 519.06 332.767 518.967 332.3L517.427 322.08H498.387L496.847 332.3C496.754 332.767 496.52 333 496.147 333H480.607C480.234 333 480.047 332.767 480.047 332.3ZM501.187 307.1H514.627L508.887 267.76L508.047 262.58L507.487 267.76L501.187 307.1ZM567.305 334.4C562.172 334.4 557.505 333.14 553.305 330.62C549.199 328.007 545.932 324.553 543.505 320.26C541.079 315.967 539.865 311.16 539.865 305.84L540.005 262.16C540.005 257.027 541.172 252.36 543.505 248.16C545.932 243.867 549.199 240.46 553.305 237.94C557.505 235.327 562.172 234.02 567.305 234.02C572.439 234.02 577.059 235.28 581.165 237.8C585.272 240.32 588.539 243.727 590.965 248.02C593.392 252.22 594.605 256.933 594.605 262.16V268.6C594.605 268.973 594.419 269.16 594.045 269.16H578.365C577.992 269.16 577.805 268.973 577.805 268.6V262.16C577.805 259.08 576.779 256.42 574.725 254.18C572.765 251.94 570.292 250.82 567.305 250.82C563.945 250.82 561.379 251.987 559.605 254.32C557.832 256.56 556.945 259.173 556.945 262.16V305.84C556.945 309.293 557.925 312.093 559.885 314.24C561.939 316.387 564.412 317.46 567.305 317.46C570.292 317.46 572.765 316.293 574.725 313.96C576.779 311.533 577.805 308.827 577.805 305.84V299.4C577.805 299.027 577.992 298.84 578.365 298.84H594.185C594.559 298.84 594.745 299.027 594.745 299.4V305.84C594.745 311.16 593.485 315.967 590.965 320.26C588.539 324.553 585.272 328.007 581.165 330.62C577.059 333.14 572.439 334.4 567.305 334.4ZM605.543 333C605.169 333 604.983 332.767 604.983 332.3L605.263 236.26C605.263 235.793 605.449 235.56 605.823 235.56H621.503C621.876 235.56 622.063 235.793 622.063 236.26V269.44L644.043 236.12C644.323 235.747 644.649 235.56 645.023 235.56H661.123C661.496 235.56 661.589 235.747 661.403 236.12L637.183 274.76L664.343 332.44C664.529 332.813 664.296 333 663.643 333H646.563C646.096 333 645.816 332.813 645.723 332.44L626.823 291.28L621.923 298.98V332.3C621.923 332.767 621.736 333 621.363 333H605.543ZM689.076 334.4C684.036 334.4 679.416 333.14 675.216 330.62C671.109 328.007 667.796 324.6 665.276 320.4C662.849 316.107 661.636 311.393 661.636 306.26V299.82C661.636 299.353 661.869 299.12 662.336 299.12H678.016C678.389 299.12 678.576 299.353 678.576 299.82V306.26C678.576 309.34 679.602 312 681.656 314.24C683.709 316.387 686.182 317.46 689.076 317.46C691.969 317.46 694.442 316.34 696.496 314.1C698.549 311.86 699.576 309.247 699.576 306.26C699.576 302.807 697.336 299.82 692.856 297.3C691.362 296.46 689.029 295.153 685.856 293.38C682.682 291.607 679.696 289.927 676.896 288.34C671.762 285.353 667.936 281.62 665.416 277.14C662.989 272.567 661.776 267.433 661.776 261.74C661.776 256.513 663.036 251.847 665.556 247.74C668.076 243.54 671.389 240.227 675.496 237.8C679.696 235.373 684.222 234.16 689.076 234.16C694.022 234.16 698.549 235.42 702.656 237.94C706.856 240.367 710.169 243.68 712.596 247.88C715.116 251.987 716.376 256.607 716.376 261.74V273.22C716.376 273.593 716.189 273.78 715.816 273.78H700.136C699.762 273.78 699.576 273.593 699.576 273.22L699.436 261.74C699.436 258.473 698.409 255.813 696.356 253.76C694.302 251.707 691.876 250.68 689.076 250.68C686.182 250.68 683.709 251.8 681.656 254.04C679.602 256.187 678.576 258.753 678.576 261.74C678.576 264.82 679.229 267.387 680.536 269.44C681.842 271.493 684.222 273.453 687.676 275.32C688.142 275.6 689.029 276.113 690.336 276.86C691.736 277.513 693.229 278.307 694.816 279.24C696.402 280.08 697.802 280.827 699.016 281.48C700.322 282.133 701.116 282.553 701.396 282.74C706.062 285.353 709.749 288.573 712.456 292.4C715.162 296.133 716.516 300.753 716.516 306.26C716.516 311.58 715.256 316.387 712.736 320.68C710.309 324.88 706.996 328.24 702.796 330.76C698.689 333.187 694.116 334.4 689.076 334.4ZM739.569 333C739.195 333 739.009 332.767 739.009 332.3V252.5H720.809C720.342 252.5 720.109 252.267 720.109 251.8L720.249 236.12C720.249 235.747 720.435 235.56 720.809 235.56H774.009C774.475 235.56 774.709 235.747 774.709 236.12V251.8C774.709 252.267 774.522 252.5 774.149 252.5H755.809L755.949 332.3C755.949 332.767 755.762 333 755.389 333H739.569ZM806.156 334.4C801.116 334.4 796.496 333.14 792.296 330.62C788.19 328.007 784.876 324.6 782.356 320.4C779.836 316.107 778.576 311.393 778.576 306.26L778.716 261.88C778.716 256.747 779.93 252.08 782.356 247.88C784.876 243.68 788.236 240.32 792.436 237.8C796.636 235.28 801.21 234.02 806.156 234.02C811.196 234.02 815.77 235.28 819.876 237.8C823.983 240.32 827.25 243.68 829.676 247.88C832.196 252.08 833.456 256.747 833.456 261.88L833.596 306.26C833.596 311.393 832.336 316.107 829.816 320.4C827.39 324.6 824.076 328.007 819.876 330.62C815.77 333.14 811.196 334.4 806.156 334.4ZM806.156 317.46C808.956 317.46 811.383 316.34 813.436 314.1C815.583 311.767 816.656 309.153 816.656 306.26L816.516 261.88C816.516 258.8 815.536 256.187 813.576 254.04C811.616 251.893 809.143 250.82 806.156 250.82C803.263 250.82 800.79 251.893 798.736 254.04C796.683 256.093 795.656 258.707 795.656 261.88V306.26C795.656 309.34 796.683 312 798.736 314.24C800.79 316.387 803.263 317.46 806.156 317.46ZM844.941 333C844.474 333 844.241 332.767 844.241 332.3L844.521 236.12C844.521 235.747 844.707 235.56 845.081 235.56H871.961C880.547 235.56 887.314 238.173 892.261 243.4C897.301 248.627 899.821 255.72 899.821 264.68C899.821 271.307 898.514 277.047 895.901 281.9C893.287 286.753 889.881 290.487 885.681 293.1C881.481 295.713 876.907 297.02 871.961 297.02H861.321V332.3C861.321 332.767 861.087 333 860.621 333H844.941ZM861.321 280.08H871.961C874.947 280.08 877.514 278.68 879.661 275.88C881.901 272.987 883.021 269.253 883.021 264.68C883.021 261.04 882.041 258.053 880.081 255.72C878.121 253.387 875.414 252.22 871.961 252.22L861.321 252.36V280.08Z" fill="white"/>
<path d="M49 263L57 249.144H73L81 263L73 276.856H57L49 263Z" fill="#086788"/>
<path d="M76 279L84 265.144H100L108 279L100 292.856H84L76 279Z" fill="#F0C808"/>
<path d="M49 231L57 217.144H73L81 231L73 244.856H57L49 231Z" fill="#EF476F"/>
<path d="M76 247L84 233.144H100L108 247L100 260.856H84L76 247Z" fill="#DD1C1A"/>
<path d="M103 263L111 249.144H127L135 263L127 276.856H111L103 263Z" fill="#EF476F"/>
<path d="M130 279L138 265.144H154L162 279L154 292.856H138L130 279Z" fill="#086788"/>
<path d="M130 279L138 265.144H154L162 279L154 292.856H138L130 279Z" fill="#F0C808"/>
<path d="M130 248L138 234.144H154L162 248L154 261.856H138L130 248Z" fill="#DD1C1A"/>
<path d="M103 295L111 281.144H127L135 295L127 308.856H111L103 295Z" fill="#EF476F"/>
<path d="M130 311L138 297.144H154L162 311L154 324.856H138L130 311Z" fill="#086788"/>
<path d="M265 263L273 249.144H289L297 263L289 276.856H273L265 263Z" fill="#086788"/>
<path d="M319 231L327 217.144H343L351 231L343 244.856H327L319 231Z" fill="#086788"/>
<path d="M319 231L327 217.144H343L351 231L343 244.856H327L319 231Z" fill="#F0C808"/>
<path d="M292 247L300 233.144H316L324 247L316 260.856H300L292 247Z" fill="#DD1C1A"/>
<path d="M319 199L327 185.144H343L351 199L343 212.856H327L319 199Z" fill="#086788"/>
<path d="M319 199L327 185.144H343L351 199L343 212.856H327L319 199Z" fill="#086788"/>
<path d="M292 215L300 201.144H316L324 215L316 228.856H300L292 215Z" fill="#EF476F"/>
<path d="M265 231L273 217.144H289L297 231L289 244.856H273L265 231Z" fill="#086788"/>
<path d="M319 263L327 249.144H343L351 263L343 276.856H327L319 263Z" fill="#EF476F"/>
<path d="M292 279L300 265.144H316L324 279L316 292.856H300L292 279Z" fill="#DD1C1A"/>
<path d="M157 327L165 313.144H181L189 327L181 340.856H165L157 327Z" fill="#F0C808"/>
<path d="M157 263L165 249.144H181L189 263L181 276.856H165L157 263Z" fill="#086788"/>
<path d="M184 279L192 265.144H208L216 279L208 292.856H192L184 279Z" fill="#DD1C1A"/>
<path d="M157 295L165 281.144H181L189 295L181 308.856H165L157 295Z" fill="#EF476F"/>
<path d="M184 311L192 297.144H208L216 311L208 324.856H192L184 311Z" fill="#086788"/>
<path d="M49 167L57 153.144H73L81 167L73 180.856H57L49 167Z" fill="#DD1C1A"/>
<path d="M76 120L84 106.144H100L108 120L100 133.856H84L76 120Z" fill="#DD1C1A"/>
<path d="M49 199L57 185.144H73L81 199L73 212.856H57L49 199Z" fill="#F0C808"/>
<path d="M76 215L84 201.144H100L108 215L100 228.856H84L76 215Z" fill="#086788"/>
<path d="M76 215L84 201.144H100L108 215L100 228.856H84L76 215Z" fill="#086788"/>
<path d="M76 183L84 169.144H100L108 183L100 196.856H84L76 183Z" fill="#EF476F"/>
<path d="M49 135L57 121.144H73L81 135L73 148.856H57L49 135Z" fill="#F0C808"/>
<path d="M76 151L84 137.144H100L108 151L100 164.856H84L76 151Z" fill="#086788"/>
<path d="M103 231L111 217.144H127L135 231L127 244.856H111L103 231Z" fill="#F0C808"/>
<path d="M211 295L219 281.144H235L243 295L235 308.856H219L211 295Z" fill="#F0C808"/>
<path d="M238 311L246 297.144H262L270 311L262 324.856H246L238 311Z" fill="#086788"/>
<path d="M238 311L246 297.144H262L270 311L262 324.856H246L238 311Z" fill="#086788"/>
<path d="M238 279L246 265.144H262L270 279L262 292.856H246L238 279Z" fill="#EF476F"/>
<path d="M211 327L219 313.144H235L243 327L235 340.856H219L211 327Z" fill="#EF476F"/>
<path d="M184 343L192 329.144H208L216 343L208 356.856H192L184 343Z" fill="#DD1C1A"/>
<path d="M292 183L300 169.144H316L324 183L316 196.856H300L292 183Z" fill="#F0C808"/>
<path d="M319 167L327 153.144H343L351 167L343 180.856H327L319 167Z" fill="#EF476F"/>
<path d="M292 119L300 105.144H316L324 119L316 132.856H300L292 119Z" fill="#EF476F"/>
<path d="M292 151L300 137.144H316L324 151L316 164.856H300L292 151Z" fill="#DD1C1A"/>
<path d="M319 135L327 121.144H343L351 135L343 148.856H327L319 135Z" fill="#F0C808"/>
<path d="M265 295L273 281.144H289L297 295L289 308.856H273L265 295Z" fill="#F0C808"/>
<path d="M238 247L246 233.144H262L270 247L262 260.856H246L238 247Z" fill="#F0C808"/>
<path d="M211 263L219 249.144H235L243 263L235 276.856H219L211 263Z" fill="#086788"/>
<path d="M103 167L111 153.144H127L135 167L127 180.856H111L103 167Z" fill="#19BC9B"/>
<path d="M130 183L138 169.144H154L162 183L154 196.856H138L130 183Z" fill="#19BC9B"/>
<path d="M130 183L138 169.144H154L162 183L154 196.856H138L130 183Z" fill="#19BC9B"/>
<path d="M130 152L138 138.144H154L162 152L154 165.856H138L130 152Z" fill="#19BC9B"/>
<path d="M103 199L111 185.144H127L135 199L127 212.856H111L103 199Z" fill="#19BC9B"/>
<path d="M130 215L138 201.144H154L162 215L154 228.856H138L130 215Z" fill="#19BC9B"/>
<path d="M265 167L273 153.144H289L297 167L289 180.856H273L265 167Z" fill="#19BC9B"/>
<path d="M265 135L273 121.144H289L297 135L289 148.856H273L265 135Z" fill="#19BC9B"/>
<path d="M157 231L165 217.144H181L189 231L181 244.856H165L157 231Z" fill="#19BC9B"/>
<path d="M157 167L165 153.144H181L189 167L181 180.856H165L157 167Z" fill="#19BC9B"/>
<path d="M184 183L192 169.144H208L216 183L208 196.856H192L184 183Z" fill="#19BC9B"/>
<path d="M157 199L165 185.144H181L189 199L181 212.856H165L157 199Z" fill="#19BC9B"/>
<path d="M184 215L192 201.144H208L216 215L208 228.856H192L184 215Z" fill="#19BC9B"/>
<path d="M103 135L111 121.144H127L135 135L127 148.856H111L103 135Z" fill="#19BC9B"/>
<path d="M211 199L219 185.144H235L243 199L235 212.856H219L211 199Z" fill="#19BC9B"/>
<path d="M238 215L246 201.144H262L270 215L262 228.856H246L238 215Z" fill="#19BC9B"/>
<path d="M238 215L246 201.144H262L270 215L262 228.856H246L238 215Z" fill="#19BC9B"/>
<path d="M238 183L246 169.144H262L270 183L262 196.856H246L238 183Z" fill="#19BC9B"/>
<path d="M211 231L219 217.144H235L243 231L235 244.856H219L211 231Z" fill="#19BC9B"/>
<path d="M184 247L192 233.144H208L216 247L208 260.856H192L184 247Z" fill="#19BC9B"/>
<path d="M265 199L273 185.144H289L297 199L289 212.856H273L265 199Z" fill="#19BC9B"/>
<path d="M238 151L246 137.144H262L270 151L262 164.856H246L238 151Z" fill="#19BC9B"/>
<path d="M211 167L219 153.144H235L243 167L235 180.856H219L211 167Z" fill="#19BC9B"/>
<path d="M297 136L289 149.856H273L265 136L273 122.144H289L297 136Z" fill="#19BC9B"/>
<path d="M270 120L262 133.856H246L238 120L246 106.144H262L270 120Z" fill="#19BC9B"/>
<path d="M270 120L262 133.856H246L238 120L246 106.144H262L270 120Z" fill="#19BC9B"/>
<path d="M270 151L262 164.856H246L238 151L246 137.144H262L270 151Z" fill="#19BC9B"/>
<path d="M297 104L289 117.856H273L265 104L273 90.1436H289L297 104Z" fill="#19BC9B"/>
<path d="M270 88L262 101.856H246L238 88L246 74.1436H262L270 88Z" fill="#19BC9B"/>
<path d="M135 136L127 149.856H111L103 136L111 122.144H127L135 136Z" fill="#19BC9B"/>
<path d="M135 168L127 181.856H111L103 168L111 154.144H127L135 168Z" fill="#19BC9B"/>
<path d="M243 72L235 85.8564H219L211 72L219 58.1436L235 58.1436L243 72Z" fill="#19BC9B"/>
<path d="M243 136L235 149.856H219L211 136L219 122.144H235L243 136Z" fill="#19BC9B"/>
<path d="M216 120L208 133.856H192L184 120L192 106.144H208L216 120Z" fill="#19BC9B"/>
<path d="M216 152L208 165.856H192L184 152L192 138.144H208L216 152Z" fill="#19BC9B"/>
<path d="M243 104L235 117.856H219L211 104L219 90.1436H235L243 104Z" fill="#19BC9B"/>
<path d="M216 88L208 101.856H192L184 88L192 74.1436H208L216 88Z" fill="#19BC9B"/>
<path d="M297 168L289 181.856H273L265 168L273 154.144H289L297 168Z" fill="#19BC9B"/>
<path d="M189 104L181 117.856H165L157 104L165 90.1436H181L189 104Z" fill="#19BC9B"/>
<path d="M162 88L154 101.856H138L130 88L138 74.1436H154L162 88Z" fill="#19BC9B"/>
<path d="M162 88L154 101.856H138L130 88L138 74.1436H154L162 88Z" fill="#19BC9B"/>
<path d="M162 120L154 133.856H138L130 120L138 106.144H154L162 120Z" fill="#19BC9B"/>
<path d="M189 72L181 85.8564H165L157 72L165 58.1436L181 58.1436L189 72Z" fill="#19BC9B"/>
<path d="M216 56L208 69.8564H192L184 56L192 42.1436L208 42.1436L216 56Z" fill="#19BC9B"/>
<path d="M135 104L127 117.856H111L103 104L111 90.1436H127L135 104Z" fill="#19BC9B"/>
<path d="M162 152L154 165.856H138L130 152L138 138.144H154L162 152Z" fill="#19BC9B"/>
<path d="M189 136L181 149.856H165L157 136L165 122.144H181L189 136Z" fill="#19BC9B"/>
</svg>
